<mxfile host="app.diagrams.net" modified="2023-10-12T18:09:45.774Z" agent="Mozilla/5.0 (Windows NT 10.0; Win64; x64) AppleWebKit/537.36 (KHTML, like Gecko) Chrome/117.0.0.0 Safari/537.36" etag="uO8myK1wv7fM5ljmkIjG" version="22.0.4" type="device">
  <diagram name="Page-1" id="OgnFMMcvPiokGAOucQf8">
    <mxGraphModel dx="1595" dy="632" grid="1" gridSize="10" guides="1" tooltips="1" connect="1" arrows="1" fold="1" page="0" pageScale="1" pageWidth="850" pageHeight="1100" math="0" shadow="0">
      <root>
        <mxCell id="0" />
        <mxCell id="1" parent="0" />
        <mxCell id="-f1xo0hFnVpbXjkeU6KR-1" value="Actor" style="shape=umlActor;verticalLabelPosition=bottom;verticalAlign=top;html=1;outlineConnect=0;" vertex="1" parent="1">
          <mxGeometry x="-30" y="200" width="30" height="60" as="geometry" />
        </mxCell>
        <mxCell id="-f1xo0hFnVpbXjkeU6KR-2" value="React" style="rounded=0;whiteSpace=wrap;html=1;" vertex="1" parent="1">
          <mxGeometry x="80" y="120" width="120" height="40" as="geometry" />
        </mxCell>
        <mxCell id="-f1xo0hFnVpbXjkeU6KR-3" value="Express.js API" style="rounded=0;whiteSpace=wrap;html=1;" vertex="1" parent="1">
          <mxGeometry x="320" y="120" width="120" height="40" as="geometry" />
        </mxCell>
        <mxCell id="-f1xo0hFnVpbXjkeU6KR-4" value="PostgreSQL" style="rounded=0;whiteSpace=wrap;html=1;" vertex="1" parent="1">
          <mxGeometry x="560" y="120" width="120" height="40" as="geometry" />
        </mxCell>
        <mxCell id="-f1xo0hFnVpbXjkeU6KR-8" value="&lt;span style=&quot;font-size: 15px;&quot;&gt;&lt;b&gt;Core Feature: Budget Management&lt;/b&gt;&lt;/span&gt;" style="text;html=1;strokeColor=none;fillColor=none;align=center;verticalAlign=middle;whiteSpace=wrap;rounded=0;" vertex="1" parent="1">
          <mxGeometry x="65" y="60" width="480" height="30" as="geometry" />
        </mxCell>
        <mxCell id="-f1xo0hFnVpbXjkeU6KR-9" value="Submit budget form" style="text;html=1;strokeColor=none;fillColor=none;align=center;verticalAlign=middle;whiteSpace=wrap;rounded=0;" vertex="1" parent="1">
          <mxGeometry x="30" y="200" width="90" height="30" as="geometry" />
        </mxCell>
        <mxCell id="-f1xo0hFnVpbXjkeU6KR-10" value="HTTP POST /budgets" style="text;html=1;strokeColor=none;fillColor=none;align=center;verticalAlign=middle;whiteSpace=wrap;rounded=0;" vertex="1" parent="1">
          <mxGeometry x="210" y="215" width="90" height="30" as="geometry" />
        </mxCell>
        <mxCell id="-f1xo0hFnVpbXjkeU6KR-13" value="" style="endArrow=classic;html=1;rounded=0;entryX=0;entryY=0.167;entryDx=0;entryDy=0;entryPerimeter=0;" edge="1" parent="1" target="-f1xo0hFnVpbXjkeU6KR-14">
          <mxGeometry width="50" height="50" relative="1" as="geometry">
            <mxPoint x="20" y="250" as="sourcePoint" />
            <mxPoint x="140" y="250" as="targetPoint" />
          </mxGeometry>
        </mxCell>
        <mxCell id="-f1xo0hFnVpbXjkeU6KR-14" value="" style="rounded=0;whiteSpace=wrap;html=1;" vertex="1" parent="1">
          <mxGeometry x="130" y="180" width="20" height="420" as="geometry" />
        </mxCell>
        <mxCell id="-f1xo0hFnVpbXjkeU6KR-15" value="" style="rounded=0;whiteSpace=wrap;html=1;" vertex="1" parent="1">
          <mxGeometry x="370" y="180" width="20" height="420" as="geometry" />
        </mxCell>
        <mxCell id="-f1xo0hFnVpbXjkeU6KR-16" value="" style="rounded=0;whiteSpace=wrap;html=1;" vertex="1" parent="1">
          <mxGeometry x="610" y="180" width="20" height="420" as="geometry" />
        </mxCell>
        <mxCell id="-f1xo0hFnVpbXjkeU6KR-17" value="" style="endArrow=classic;html=1;rounded=0;entryX=0.083;entryY=0.196;entryDx=0;entryDy=0;entryPerimeter=0;" edge="1" parent="1" target="-f1xo0hFnVpbXjkeU6KR-15">
          <mxGeometry width="50" height="50" relative="1" as="geometry">
            <mxPoint x="150" y="265" as="sourcePoint" />
            <mxPoint x="137" y="259" as="targetPoint" />
          </mxGeometry>
        </mxCell>
        <mxCell id="-f1xo0hFnVpbXjkeU6KR-20" value="" style="endArrow=classic;html=1;rounded=0;entryX=-0.208;entryY=0.309;entryDx=0;entryDy=0;exitX=0.917;exitY=0.313;exitDx=0;exitDy=0;exitPerimeter=0;entryPerimeter=0;" edge="1" parent="1" source="-f1xo0hFnVpbXjkeU6KR-15" target="-f1xo0hFnVpbXjkeU6KR-16">
          <mxGeometry width="50" height="50" relative="1" as="geometry">
            <mxPoint x="160" y="275" as="sourcePoint" />
            <mxPoint x="379" y="275" as="targetPoint" />
          </mxGeometry>
        </mxCell>
        <mxCell id="-f1xo0hFnVpbXjkeU6KR-21" value="" style="swimlane;startSize=0;" vertex="1" parent="1">
          <mxGeometry x="-40" y="190" width="690" height="170" as="geometry" />
        </mxCell>
        <mxCell id="-f1xo0hFnVpbXjkeU6KR-11" value="Body validation&lt;br&gt;Token verification" style="text;html=1;strokeColor=none;fillColor=none;align=center;verticalAlign=middle;whiteSpace=wrap;rounded=0;" vertex="1" parent="-f1xo0hFnVpbXjkeU6KR-21">
          <mxGeometry x="480" y="55" width="110" height="30" as="geometry" />
        </mxCell>
        <mxCell id="-f1xo0hFnVpbXjkeU6KR-19" value="" style="endArrow=classic;html=1;rounded=0;entryX=1;entryY=0.25;entryDx=0;entryDy=0;exitX=1.125;exitY=0.172;exitDx=0;exitDy=0;exitPerimeter=0;" edge="1" parent="-f1xo0hFnVpbXjkeU6KR-21">
          <mxGeometry width="50" height="50" relative="1" as="geometry">
            <mxPoint x="432.5" y="70" as="sourcePoint" />
            <mxPoint x="430" y="102.7600000000001" as="targetPoint" />
            <Array as="points">
              <mxPoint x="480" y="87.75999999999999" />
            </Array>
          </mxGeometry>
        </mxCell>
        <mxCell id="-f1xo0hFnVpbXjkeU6KR-12" value="Create Budget" style="text;html=1;strokeColor=none;fillColor=none;align=center;verticalAlign=middle;whiteSpace=wrap;rounded=0;" vertex="1" parent="-f1xo0hFnVpbXjkeU6KR-21">
          <mxGeometry x="490" y="100" width="90" height="30" as="geometry" />
        </mxCell>
        <mxCell id="-f1xo0hFnVpbXjkeU6KR-51" value="HTTP 200 OK" style="text;html=1;strokeColor=none;fillColor=none;align=center;verticalAlign=middle;whiteSpace=wrap;rounded=0;" vertex="1" parent="-f1xo0hFnVpbXjkeU6KR-21">
          <mxGeometry x="250" y="110" width="90" height="30" as="geometry" />
        </mxCell>
        <mxCell id="-f1xo0hFnVpbXjkeU6KR-53" value="Budget Created" style="text;html=1;strokeColor=none;fillColor=none;align=center;verticalAlign=middle;whiteSpace=wrap;rounded=0;" vertex="1" parent="-f1xo0hFnVpbXjkeU6KR-21">
          <mxGeometry x="60" y="110" width="90" height="30" as="geometry" />
        </mxCell>
        <mxCell id="-f1xo0hFnVpbXjkeU6KR-25" value="Actor" style="shape=umlActor;verticalLabelPosition=bottom;verticalAlign=top;html=1;outlineConnect=0;" vertex="1" parent="1">
          <mxGeometry x="-30" y="390" width="30" height="60" as="geometry" />
        </mxCell>
        <mxCell id="-f1xo0hFnVpbXjkeU6KR-26" value="View budgets" style="text;html=1;strokeColor=none;fillColor=none;align=center;verticalAlign=middle;whiteSpace=wrap;rounded=0;" vertex="1" parent="1">
          <mxGeometry x="30" y="390" width="90" height="30" as="geometry" />
        </mxCell>
        <mxCell id="-f1xo0hFnVpbXjkeU6KR-27" value="HTTP GET /budgets" style="text;html=1;strokeColor=none;fillColor=none;align=center;verticalAlign=middle;whiteSpace=wrap;rounded=0;" vertex="1" parent="1">
          <mxGeometry x="210" y="405" width="90" height="30" as="geometry" />
        </mxCell>
        <mxCell id="-f1xo0hFnVpbXjkeU6KR-30" value="" style="endArrow=classic;html=1;rounded=0;entryX=-0.167;entryY=0.1;entryDx=0;entryDy=0;entryPerimeter=0;" edge="1" parent="1">
          <mxGeometry width="50" height="50" relative="1" as="geometry">
            <mxPoint x="20" y="440" as="sourcePoint" />
            <mxPoint x="127" y="439" as="targetPoint" />
          </mxGeometry>
        </mxCell>
        <mxCell id="-f1xo0hFnVpbXjkeU6KR-31" value="" style="endArrow=classic;html=1;rounded=0;entryX=-0.042;entryY=0.14;entryDx=0;entryDy=0;entryPerimeter=0;" edge="1" parent="1">
          <mxGeometry width="50" height="50" relative="1" as="geometry">
            <mxPoint x="150" y="455" as="sourcePoint" />
            <mxPoint x="369" y="455" as="targetPoint" />
          </mxGeometry>
        </mxCell>
        <mxCell id="-f1xo0hFnVpbXjkeU6KR-34" value="" style="swimlane;startSize=0;" vertex="1" parent="1">
          <mxGeometry x="-40" y="380" width="690" height="220" as="geometry" />
        </mxCell>
        <mxCell id="-f1xo0hFnVpbXjkeU6KR-33" value="" style="endArrow=classic;html=1;rounded=0;entryX=-0.083;entryY=0.307;entryDx=0;entryDy=0;entryPerimeter=0;exitX=0.917;exitY=0.313;exitDx=0;exitDy=0;exitPerimeter=0;" edge="1" parent="-f1xo0hFnVpbXjkeU6KR-34">
          <mxGeometry width="50" height="50" relative="1" as="geometry">
            <mxPoint x="430" y="130" as="sourcePoint" />
            <mxPoint x="650" y="133" as="targetPoint" />
          </mxGeometry>
        </mxCell>
        <mxCell id="-f1xo0hFnVpbXjkeU6KR-32" value="" style="endArrow=classic;html=1;rounded=0;entryX=1;entryY=0.25;entryDx=0;entryDy=0;exitX=1.125;exitY=0.172;exitDx=0;exitDy=0;exitPerimeter=0;" edge="1" parent="-f1xo0hFnVpbXjkeU6KR-34">
          <mxGeometry width="50" height="50" relative="1" as="geometry">
            <mxPoint x="433" y="80" as="sourcePoint" />
            <mxPoint x="430" y="111" as="targetPoint" />
            <Array as="points">
              <mxPoint x="480" y="93" />
            </Array>
          </mxGeometry>
        </mxCell>
        <mxCell id="-f1xo0hFnVpbXjkeU6KR-29" value="Get budgets with userId" style="text;html=1;strokeColor=none;fillColor=none;align=center;verticalAlign=middle;whiteSpace=wrap;rounded=0;" vertex="1" parent="-f1xo0hFnVpbXjkeU6KR-34">
          <mxGeometry x="490" y="100" width="90" height="30" as="geometry" />
        </mxCell>
        <mxCell id="-f1xo0hFnVpbXjkeU6KR-41" value="users budgets" style="text;html=1;strokeColor=none;fillColor=none;align=center;verticalAlign=middle;whiteSpace=wrap;rounded=0;" vertex="1" parent="-f1xo0hFnVpbXjkeU6KR-34">
          <mxGeometry x="500" y="160" width="90" height="30" as="geometry" />
        </mxCell>
        <mxCell id="-f1xo0hFnVpbXjkeU6KR-46" value="" style="endArrow=classic;html=1;rounded=0;entryX=1.083;entryY=0.823;entryDx=0;entryDy=0;entryPerimeter=0;exitX=0;exitY=0.797;exitDx=0;exitDy=0;exitPerimeter=0;" edge="1" parent="-f1xo0hFnVpbXjkeU6KR-34">
          <mxGeometry width="50" height="50" relative="1" as="geometry">
            <mxPoint x="408" y="180" as="sourcePoint" />
            <mxPoint x="190" y="180" as="targetPoint" />
          </mxGeometry>
        </mxCell>
        <mxCell id="-f1xo0hFnVpbXjkeU6KR-47" value="HTTP 200 OK&lt;br&gt;Budgets JSON" style="text;html=1;strokeColor=none;fillColor=none;align=center;verticalAlign=middle;whiteSpace=wrap;rounded=0;" vertex="1" parent="-f1xo0hFnVpbXjkeU6KR-34">
          <mxGeometry x="230" y="150" width="140" height="30" as="geometry" />
        </mxCell>
        <mxCell id="-f1xo0hFnVpbXjkeU6KR-55" value="Budgets" style="text;html=1;strokeColor=none;fillColor=none;align=center;verticalAlign=middle;whiteSpace=wrap;rounded=0;" vertex="1" parent="-f1xo0hFnVpbXjkeU6KR-34">
          <mxGeometry x="70" y="170" width="90" height="30" as="geometry" />
        </mxCell>
        <mxCell id="-f1xo0hFnVpbXjkeU6KR-63" value="Body validation&lt;br&gt;Token verification" style="text;html=1;strokeColor=none;fillColor=none;align=center;verticalAlign=middle;whiteSpace=wrap;rounded=0;" vertex="1" parent="-f1xo0hFnVpbXjkeU6KR-34">
          <mxGeometry x="470" y="60" width="110" height="30" as="geometry" />
        </mxCell>
        <mxCell id="-f1xo0hFnVpbXjkeU6KR-40" value="" style="endArrow=classic;html=1;rounded=0;entryX=1.083;entryY=0.823;entryDx=0;entryDy=0;entryPerimeter=0;" edge="1" parent="1" target="-f1xo0hFnVpbXjkeU6KR-15">
          <mxGeometry width="50" height="50" relative="1" as="geometry">
            <mxPoint x="610" y="526" as="sourcePoint" />
            <mxPoint x="650" y="533" as="targetPoint" />
          </mxGeometry>
        </mxCell>
        <mxCell id="-f1xo0hFnVpbXjkeU6KR-50" value="" style="endArrow=classic;html=1;rounded=0;entryX=1;entryY=0.357;entryDx=0;entryDy=0;exitX=-0.083;exitY=0.354;exitDx=0;exitDy=0;exitPerimeter=0;entryPerimeter=0;" edge="1" parent="1" source="-f1xo0hFnVpbXjkeU6KR-15" target="-f1xo0hFnVpbXjkeU6KR-14">
          <mxGeometry width="50" height="50" relative="1" as="geometry">
            <mxPoint x="398" y="321" as="sourcePoint" />
            <mxPoint x="620" y="323" as="targetPoint" />
          </mxGeometry>
        </mxCell>
        <mxCell id="-f1xo0hFnVpbXjkeU6KR-52" value="" style="endArrow=classic;html=1;rounded=0;exitX=-0.083;exitY=0.354;exitDx=0;exitDy=0;exitPerimeter=0;" edge="1" parent="1">
          <mxGeometry width="50" height="50" relative="1" as="geometry">
            <mxPoint x="130" y="339" as="sourcePoint" />
            <mxPoint y="340" as="targetPoint" />
          </mxGeometry>
        </mxCell>
        <mxCell id="-f1xo0hFnVpbXjkeU6KR-54" value="" style="endArrow=classic;html=1;rounded=0;exitX=0;exitY=0.797;exitDx=0;exitDy=0;exitPerimeter=0;" edge="1" parent="1">
          <mxGeometry width="50" height="50" relative="1" as="geometry">
            <mxPoint x="130" y="580" as="sourcePoint" />
            <mxPoint x="10" y="580" as="targetPoint" />
          </mxGeometry>
        </mxCell>
        <mxCell id="-f1xo0hFnVpbXjkeU6KR-59" value="" style="endArrow=none;dashed=1;html=1;dashPattern=1 3;strokeWidth=2;rounded=0;entryX=0.5;entryY=1;entryDx=0;entryDy=0;exitX=0.5;exitY=0;exitDx=0;exitDy=0;" edge="1" parent="1" source="-f1xo0hFnVpbXjkeU6KR-14" target="-f1xo0hFnVpbXjkeU6KR-2">
          <mxGeometry width="50" height="50" relative="1" as="geometry">
            <mxPoint x="360" y="450" as="sourcePoint" />
            <mxPoint x="410" y="400" as="targetPoint" />
          </mxGeometry>
        </mxCell>
        <mxCell id="-f1xo0hFnVpbXjkeU6KR-61" value="" style="endArrow=none;dashed=1;html=1;dashPattern=1 3;strokeWidth=2;rounded=0;entryX=0.5;entryY=1;entryDx=0;entryDy=0;" edge="1" parent="1" target="-f1xo0hFnVpbXjkeU6KR-3">
          <mxGeometry width="50" height="50" relative="1" as="geometry">
            <mxPoint x="380" y="180" as="sourcePoint" />
            <mxPoint x="410" y="400" as="targetPoint" />
          </mxGeometry>
        </mxCell>
        <mxCell id="-f1xo0hFnVpbXjkeU6KR-62" value="" style="endArrow=none;dashed=1;html=1;dashPattern=1 3;strokeWidth=2;rounded=0;entryX=0.5;entryY=1;entryDx=0;entryDy=0;exitX=0.5;exitY=0;exitDx=0;exitDy=0;" edge="1" parent="1" source="-f1xo0hFnVpbXjkeU6KR-16" target="-f1xo0hFnVpbXjkeU6KR-4">
          <mxGeometry width="50" height="50" relative="1" as="geometry">
            <mxPoint x="160" y="200" as="sourcePoint" />
            <mxPoint x="160" y="180" as="targetPoint" />
          </mxGeometry>
        </mxCell>
      </root>
    </mxGraphModel>
  </diagram>
</mxfile>
